/* XPM */
static char *_9eb0bdc0425474dfb9fff6997d08513fEa01FDlmVSTAmEK[] = {
/* columns rows colors chars-per-pixel */
"32 32 13 1 ",
"  c None",
". c #010000",
"X c #332F24",
"o c #594153",
"O c #847711",
"+ c #C6AA1F",
"@ c #FFF81C",
"# c #E1C621",
"$ c #AF5D9B",
"% c #FF55FA",
"& c #F18AD0",
"* c #FFA4D4",
"= c white",
/* pixels */
"                                ",
"        .......                 ",
"      ..$$$$$$$..               ",
"     .$$%****&$$$.   ..         ",
"    .$&*********%.  .OO.        ",
"    .$***********...O+@O.       ",
"   .%&***********.%$.@@O.       ",
"   .&******&=&=**.&$.@@O.       ",
"   .&******&.&.**.&$.@@O.       ",
"  ..&&**$&*&.&.**.&$.@@O.       ",
"..+.%&**.$&*****&.$.#@@O.       ",
".O@O.&***.$****&.O.#@@@O.       ",
".O@@+.%**.$%&&&.O#@@@@@O.       ",
"oO+@@+o%*..XXXXO@@@@@@@#Oo      ",
" ..@@@#..O#@@@@@@@@@@@@@#+..    ",
"  .+@@@@@@@@@@@@@@@@@@@@@@@+O.  ",
"   O+#@@@@@@@@@@@@@@@@@@@@@@+O. ",
"   ..#@@@@@@@@@@@@@@@@@@@@@@#O. ",
"    .+#@@@@@@@@@@@@@@@@@@@@#+Oo ",
"    o.+@@@@@@@@@@@@@@@@@@##+O.  ",
"     .O@@@@@@@@@@@@@@@@@#+...   ",
"    .O#@@@@@@@@@@@@@@@@#O.      ",
"    .+@@@@@@@@@@@@@@@@@O.       ",
"   .O#@@@@@@@@@@@@@@@@@O.       ",
"   .+#@@@@@##@@@@@@@@@@O.       ",
"  .O#@@@##+OO+##@@@@@@@O.       ",
"  .+@@##OOO...O++#@@@@@O.       ",
"  .+##O+..     ..+##@@@O.       ",
"  .++O..         ..O+@@O.       ",
"  ....            ..O+@O.       ",
"                     ...        ",
"                                "
};
