/* XPM */
static char *_57e54bb6e1b49dad8506de9f66db5b0xxb0ez1uIuXkYzxs[] = {
/* columns rows colors chars-per-pixel */
"32 32 127 2 ",
"   c #73B13F",
".  c #7AB53F",
"X  c #7EBA3F",
"o  c #509742",
"O  c #559D44",
"+  c #599F43",
"@  c #57A041",
"#  c #5BA244",
"$  c #61A643",
"%  c #64AB44",
"&  c #6BAC43",
"*  c #72AF43",
"=  c #67B045",
"-  c #6BB344",
";  c #6FB845",
":  c #6DB448",
">  c #71B442",
",  c #75B641",
"<  c #74B443",
"1  c #77B442",
"2  c #71B244",
"3  c #72B344",
"4  c #72B444",
"5  c #73B544",
"6  c #77B745",
"7  c #73B343",
"8  c #7AB540",
"9  c #79B640",
"0  c #78B542",
"q  c #7AB742",
"w  c #7CB740",
"e  c #7AB541",
"r  c #70B943",
"t  c #71B943",
"y  c #72B843",
"u  c #72B943",
"i  c #71BA43",
"p  c #73BA42",
"a  c #72BA43",
"s  c #76B941",
"d  c #77B943",
"f  c #74BA43",
"g  c #76BA43",
"h  c #75BD43",
"j  c #70B844",
"k  c #70B945",
"l  c #70BA44",
"z  c #71BA44",
"x  c #71BB44",
"c  c #71BA45",
"v  c #72BA44",
"b  c #72BB45",
"n  c #72BB46",
"m  c #75BB44",
"M  c #77BA44",
"N  c #73BD44",
"B  c #73BC45",
"V  c #75BC44",
"C  c #76BC44",
"Z  c #73BA44",
"A  c #7BB941",
"S  c #7BB942",
"D  c #7BB843",
"F  c #7BBB42",
"G  c #7DB841",
"H  c #7CBA40",
"J  c #7FBB41",
"K  c #7CB942",
"L  c #7DB942",
"P  c #7DB943",
"I  c #7FB942",
"U  c #7FB843",
"Y  c #79BD41",
"T  c #7BBD41",
"R  c #79BC42",
"E  c #7ABE42",
"W  c #7BBE43",
"Q  c #7DBE40",
"!  c #7DBC42",
"~  c #7DBF43",
"^  c #7FBF42",
"/  c #7CBA42",
"(  c #75C045",
")  c #7CC144",
"_  c #87BF3D",
"`  c #84BE3F",
"'  c #88BF3D",
"]  c #89BF3E",
"[  c #86C13F",
"{  c #89C03D",
"}  c #89C03E",
"|  c #89C03F",
" . c #8BC13F",
".. c #8BC33F",
"X. c #90C63E",
"o. c #81B940",
"O. c #81BB40",
"+. c #82BA40",
"@. c #80B842",
"#. c #80BC42",
"$. c #83BD43",
"%. c #84BC41",
"&. c #86BC41",
"*. c #86BD41",
"=. c #86BC42",
"-. c #87BE42",
";. c #81B944",
":. c #81B945",
">. c #81B946",
",. c #82BB42",
"<. c #88BE40",
"1. c #84C041",
"2. c #86C140",
"3. c #86C241",
"4. c #87C440",
"5. c #84C141",
"6. c #89C041",
"7. c #8AC041",
"8. c #8BC141",
"9. c #89C241",
"0. c #8DC440",
"q. c #8FC540",
"w. c #8FC640",
"e. c #8EC641",
"r. c #8FC643",
"t. c #8CC440",
"y. c #90C640",
/* pixels */
"# - v $ # # $ y.@ - $ # % - # V + ..& & 5 - # # O &.  % = # $ p ",
"# $ = % & 7 7 ^ - p -   1 $ % ` P 7 $ # = = % * < J ; - - - . $ ",
"& & & % & D P v - ; x R 1 & 7 ` ..& & & & & % D P v - ; v s P % ",
"..%.@.& % v v : # - v $ & P q + ;.p 9.%.;.1 # v n - # - v = $ o.",
"# ; v % 7 4.- # y.C $ # % v m ;.+ - $ - p = % y.p $ %.J = + # s ",
"+ % $ $ = 5 % * %.= q 7 % % v M 7 % # $ % $ % 6 $ & ` 7 - . = $ ",
"@ & & * & % & P P $ X h % - R - P % # $ & & < $ % D X %   Q = # ",
"# ' &. .P $ @.p x # - % # < ' + v p $ P 8.%.' # @.p ; % % - # = ",
"+ $ = #.P # # p v n # P 1.7 $ e.# 9.& % % < 1.# # - v ; = & e.D ",
"= - % & = = = % 1.V $ 1 %.m - * % M - - = $ - = - % ^ C = & =.M ",
"n n % # = ; = @ [ h = < M - - $ = 5 V V = $ % ; ; # M ) - - D - ",
") ( ; : - : # o = x ( ( v % = ; # : ( ) v = - = # @ % ; ( ( x & ",
"$ 4.e.) - % - : - n # 7 %.D ;.1.= % # J w.4.; $ : : - ; = $ [ o.",
"- 5.....R = $ % - ) - J %.- m %.; X v ) 4...5.= $ % : R M < 8.- ",
") 4.5.1.D % $ = = ` D 5.1.5 v %.- [ ) 5.4.[ 5.= # = - J %.P 9.6 ",
"..X.s p - # ; x # [ %.1 J 9.m e.= e.X...[ - - # - n # P 9.M 1 ..",
"X.X.e.e.P $ h ..@ ; # D 1.` ..x # % [ ..8.X.` # v ..& & = & 4.@.",
"X.< * =.J $ % 7 7 % X X D s 7 x X %...X * 1 ..$ % & 7 &   X ) s ",
"9.$ $ o.P $ $ # P & ` D - % # - @.'  .7 $ * #.$ $ # 6 7 . [ - - ",
"o.$ < ;.2 $ - # v P ..  # $ - # # 8 o.& & ;.D + n # - D ` @.+ + ",
"v ..R v - $ # n p P $ * @.P x n + + - 9.1.n v = # - n P < & @.@.",
"% D h = $ # % 1.$ s $ $ - < % n + . & s ) - % # @ ` - - & # & m ",
"# = - % $ % - 1.$ ; & & - = $ Q & X $ % - = # & & ` & - - % & - ",
"+ # $ % 7 @.@.n n v v 1.P # - ..X.$ + + # = = @.w p v v v R ..+ ",
"..%.@.& % p p = + - p % & @.. # ` p 4.&.P 1 # n v - # - p - $ P ",
"2 s R % - [ ; $ X p % # % R . 7 $ ; 7 5 s < $ 4.v % 1 D - # $ h ",
"+ % = $ & P = &  .< - % % - p P & & # % - % % %.= & =.q - - $ - ",
"# + # $ % $ $ o.@.$ ` Q - $ p ; w $ # # # # % $ # 1 w &   [ - # ",
"# 1.%.9.^ $ ;.m x # - % # 2 [ + v n $ P 9.%.[ + @.p x %   = # % ",
"# 2 2 5.D # & p n - & 1 P 7 2 ^ $ %.% & < 1 [ # & ; x - # - X 1 ",
"$ = % 1 1 $ % = J n $ q ` 6 & J # ` - % % - D $ $ - . h & & [ P ",
"n v # # % h - + ..m $ * D p - @ ; p x p - # # x x # ` ) = % P n "
};
