/* XPM */
static char *_20f096e2225495ba1c63e1c9f4e76d4v41bm0rGuXuL0eq3[] = {
/* columns rows colors chars-per-pixel */
"32 32 204 2 ",
"   c None",
".  c black",
"X  c #0D0000",
"o  c #150103",
"O  c #1B0005",
"+  c #17060B",
"@  c #190F13",
"#  c #1A1415",
"$  c #121112",
"%  c #210F17",
"&  c #3B0E17",
"*  c #201E1F",
"=  c #29181B",
"-  c #361111",
";  c #3B1318",
":  c #350B0A",
">  c #291F20",
",  c #272626",
"<  c #2F3030",
"1  c #393637",
"2  c #4F000D",
"3  c #5E0101",
"4  c #540003",
"5  c #490217",
"6  c #590213",
"7  c #630407",
"8  c #610016",
"9  c #64001C",
"0  c #690717",
"q  c #7A0017",
"w  c #4D1C25",
"e  c #581321",
"r  c #6C0024",
"t  c #71002A",
"y  c #720E21",
"u  c #751824",
"i  c #730F31",
"p  c #7C1F33",
"a  c #482025",
"s  c #4B2431",
"d  c #572C3A",
"f  c #592F3B",
"g  c #493638",
"h  c #583438",
"j  c #682535",
"k  c #762637",
"l  c #6A2D41",
"z  c #762D44",
"x  c #743C52",
"c  c #574B4D",
"v  c #524E4E",
"b  c #624045",
"n  c #6C4D51",
"m  c #67515A",
"M  c #7C455A",
"N  c #794761",
"B  c #606262",
"V  c #716869",
"C  c #8D0408",
"Z  c #9A0304",
"A  c #960001",
"S  c #970733",
"D  c #A7052C",
"F  c #AA1320",
"G  c #A80135",
"H  c #B6033E",
"J  c #BB0C37",
"K  c #AC1437",
"L  c #83273D",
"P  c #88283B",
"I  c #92233C",
"U  c #B1273A",
"Y  c #A7243C",
"T  c #C30102",
"R  c #D60204",
"E  c #D8060B",
"W  c #D8090F",
"Q  c #D90205",
"!  c #C40A11",
"~  c #D80A10",
"^  c #C71B27",
"/  c #B70441",
"(  c #B5134B",
")  c #BD115A",
"_  c #9E2A42",
"`  c #81344D",
"'  c #863954",
"]  c #823D58",
"[  c #A82E47",
"{  c #BC394F",
"}  c #AC3350",
"|  c #B73755",
" . c #B62A66",
".. c #C2024C",
"X. c #C60343",
"o. c #C51D4C",
"O. c #C70352",
"+. c #C80354",
"@. c #C10F51",
"#. c #DA075A",
"$. c #CD1A57",
"%. c #D31858",
"&. c #CE285B",
"*. c #C5375F",
"=. c #C43D5D",
"-. c #CA335C",
";. c #C32449",
":. c #E60D69",
">. c #E3176B",
",. c #EE1373",
"<. c #EB1C73",
"1. c #E81676",
"2. c #F6177E",
"3. c #F41A7D",
"4. c #F8167F",
"5. c #DB2265",
"6. c #D8376B",
"7. c #DA2171",
"8. c #EF2E7E",
"9. c #E33676",
"0. c #8D445C",
"q. c #9B415E",
"w. c #B7405F",
"e. c #834A65",
"r. c #99516C",
"t. c #964664",
"y. c #A64F6F",
"u. c #B64566",
"i. c #AD4E71",
"p. c #B24E74",
"a. c #BB5377",
"s. c #A45774",
"d. c #C7456A",
"f. c #D34A6E",
"g. c #D64B74",
"h. c #DB4C79",
"j. c #C65078",
"k. c #D9537B",
"l. c #E1487B",
"z. c #E54C69",
"x. c #F91881",
"c. c #F81780",
"v. c #F62381",
"b. c #F8398D",
"n. c #A55D81",
"m. c #BF5A80",
"M. c #BE6088",
"N. c #BE6D92",
"B. c #DD5D85",
"V. c #DA5A88",
"C. c #ED4688",
"Z. c #E15784",
"A. c #E95E81",
"S. c #E15D88",
"D. c #E35B87",
"F. c #F84B9D",
"G. c #F44F94",
"H. c #EC5990",
"J. c #F85B9E",
"K. c #C86289",
"L. c #DD638D",
"P. c #DC6A95",
"I. c #E1638E",
"U. c #F1648A",
"Y. c #E96593",
"T. c #EB6897",
"R. c #E36E9C",
"E. c #ED6E9D",
"W. c #E16891",
"Q. c #F06F9F",
"!. c #E7729E",
"~. c #E9719E",
"^. c #F1709A",
"/. c #CA79A2",
"(. c #DC7AA5",
"). c #D57EA9",
"_. c #D778A5",
"`. c #E96FA4",
"'. c #E672A2",
"]. c #ED7DAC",
"[. c #E977A5",
"{. c #F276A4",
"}. c #E77EB0",
"|. c #EF80AE",
" X c #EE87B9",
".X c #F582B4",
"XX c #F38ABC",
"oX c #F68CBB",
"OX c #E88EC1",
"+X c #F48EC1",
"@X c #F98EC2",
"#X c #EB96C5",
"$X c #F591C5",
"%X c #F595CB",
"&X c #F598CF",
"*X c #F899CD",
"=X c #F996CB",
"-X c #F69CD3",
";X c #F89CD2",
":X c #F4A1CE",
">X c #F7A0D8",
",X c #F8A0D8",
"<X c #F8A0D7",
"1X c white",
/* pixels */
"                                                                ",
"                                                                ",
"                      . . . . . . . . .                         ",
"                $ + . g h I | d.d.} k ; . + $                   ",
"              1 . w z ' y.K.R.'.'.P.a.t.' j ; 1 B               ",
"            < # & P *.k.W.[.].|.].].'.B.f.| u . 1               ",
"          < , . 7 F ~ ~ ~ ~ ~ ~ W ~ ~ ~ W ~ ~ A . h             ",
"          . . 3 A T Q E W ~ ~ ~ W W W E Q Q R T Z .             ",
"          . 3 Z ! W W W ~ ~ ~ ~ ~ ~ W W ~ ~ ~ ~ ~ . g           ",
"        , . C ^ ~ I.A.A.A.A.A.1X. X k.U.1X. X k.A.U .           ",
"      > . k { z.U.U.{.$X-X:X,X1X. . #X,X1X. . XX^.f.[ .         ",
"    # . ] K.]..XoX$X=X;X,X,X,X. . . ,X,X. . . &X$X~.u..         ",
"    . z M. X*X;X,X,X,X,X,X,X,X. . . ,X,X. . . >X>X XK.. <       ",
"    . a.}.&X*X;X;X,X,X,X,X,X,X. . . ,X,X. . . ,X-X&X|.e.. .     ",
"  . 0._.&X-X-X;X,X-X,XF.F.F.,X. . . ,X,X. . . F.F.-X#X/.r.j . v ",
". x N.#X-X;X,X,X,X,X,XF.F.F.,X. . . >X>X. . . F.F.&X;X$X).s.f # ",
". n.OX-X-X;X;X;X;X;X;X<X,X,X,X;X:X<X;X;X;X;X;X;X;X;X;XoX+X).N # ",
". n.+X;X;X;X;X;X;X;X<X,X,X,X<X,X,X,X$XD.Z.;X,X,X-X;X;X;X.X(.e.% ",
". q.!.XX+X.X;X;X;X;X;X<X,X,X,X,X,X>X$XZ.Z.;X,X;X;X;X].T.I.a.l + ",
". L d.P.'.~.E.;X;X;X;X;X;X,X<X<X,X>X-X%X&X;X<X;X&X].B.g.w.L w @ ",
"  . k ' q.u.k.Y.`.;X*X;X;X;X<X<X,X>X<X>X,X<X<X;X&XL.=.[ k w .   ",
"    . . e I =.k.Y.Q.;X;X;X;X;X*X;X;X;X;X&X&X;X;X~.f.Y u O O     ",
"      . i ( $.6.h.Y.Q.{.;X;X;X*X;X;X;X;X;X;X;X~.B.-.. O c       ",
"    5 . p.V.9.>.9.C.G.Y.T.Q.;X;X;X;X;X;X;X;XS.h.9.5.) . 0.m     ",
"    .  .`..XG.2.3.v.8.l.Z.T.`.;X;X;X;X;XT.B.6.&.<.3.3.>.. f     ",
"o . S 7.F.J.b.4.4.2.<.5.6.Z.T.E.`.E.T.D.g.=.) #.,.3.x.2.) . -   ",
". 0 H :.<.<.,.,.,.,.:.#.%.*.u.i.p.j.g.. ;.J ^ #.:.,.,.:.( y :   ",
"4 q G ..+.+.+.+.+.+.O...H . k s d P . K D D H ..O.+.../ S 0 -   ",
". 2 9 t t t t t t t t t r . b   V n . 8 8 8 r t t t t 9 2 ;     ",
"o o O O O O O O O O O O O =       v = o O o O O O O o o o #     ",
"                                                                ",
"                                                                "
};
