/* XPM */
static char *afc14c484d0d4fdcfeb201466d417d09V2ePAmxtHC1ipMxW[] = {
/* columns rows colors chars-per-pixel */
"32 32 225 2 ",
"   c None",
".  c #0C090C",
"X  c #1B171C",
"o  c #17151C",
"O  c #100F13",
"+  c #281618",
"@  c #331112",
"#  c #311B1F",
"$  c #3F0202",
"%  c #172806",
"&  c #192907",
"*  c #23310C",
"=  c #3A3707",
"-  c #2A3817",
";  c #392D1E",
":  c #1D1B24",
">  c #191720",
",  c #211E25",
"<  c #1D2226",
"1  c #25232B",
"2  c #2A252C",
"3  c #2F2A2E",
"4  c #36272B",
"5  c #393228",
"6  c #2D2A32",
"7  c #2D2B34",
"8  c #352C32",
"9  c #35333B",
"0  c #3B353C",
"q  c #3C3839",
"w  c #5D0809",
"e  c #4E1D0C",
"r  c #4E191B",
"t  c #5A1918",
"y  c #410202",
"u  c #600203",
"i  c #760A0A",
"p  c #78170A",
"a  c #671815",
"s  c #761711",
"d  c #5A241F",
"f  c #503806",
"g  c #7A2B03",
"h  c #7B2519",
"j  c #652F0E",
"k  c #501F20",
"l  c #462529",
"z  c #582828",
"x  c #553435",
"c  c #573738",
"v  c #513735",
"b  c #6E2324",
"n  c #7C2225",
"m  c #643A36",
"M  c #7C3539",
"N  c #7C2F33",
"B  c #294807",
"V  c #2A5C07",
"C  c #3F5C06",
"Z  c #325D19",
"A  c #314118",
"S  c #2F6807",
"D  c #3B6C03",
"F  c #3B630C",
"G  c #356809",
"H  c #367009",
"J  c #3C7806",
"K  c #344A25",
"L  c #3E4336",
"P  c #4C5B08",
"I  c #595907",
"U  c #494905",
"Y  c #774B05",
"T  c #6F5406",
"R  c #765707",
"E  c #694A06",
"W  c #486907",
"Q  c #417607",
"!  c #4F7605",
"~  c #716803",
"^  c #627205",
"/  c #424B3A",
"(  c #4B573F",
")  c #73443D",
"_  c #3D3A43",
"`  c #523C41",
"'  c #623D41",
"]  c #494547",
"[  c #554549",
"{  c #4F5746",
"}  c #4B4950",
"|  c #534C53",
" . c #5A5356",
".. c #52564C",
"X. c #644247",
"o. c #774346",
"O. c #645555",
"+. c #685658",
"@. c #725C5C",
"#. c #795E5E",
"$. c #76514E",
"%. c #636B5C",
"&. c #5F5D64",
"*. c #635E64",
"=. c #745F62",
"-. c #6B6868",
";. c #796867",
":. c #777877",
">. c #656770",
",. c #880503",
"<. c #920203",
"1. c #9D0403",
"2. c #980A05",
"3. c #831C0D",
"4. c #9B1315",
"5. c #A50B00",
"6. c #A40A0A",
"7. c #A80704",
"8. c #B80B05",
"9. c #A41601",
"0. c #BD1409",
"q. c #AB1817",
"w. c #933A04",
"e. c #922008",
"r. c #AE2D01",
"t. c #A42400",
"y. c #BB2C00",
"u. c #B22601",
"i. c #AC3B03",
"p. c #A83806",
"a. c #B93603",
"s. c #9C1F21",
"d. c #89272A",
"f. c #9B2122",
"g. c #852E32",
"h. c #992F32",
"j. c #8B3738",
"k. c #933435",
"l. c #973636",
"z. c #AD3835",
"x. c #B4322F",
"c. c #CA0B00",
"v. c #C81703",
"b. c #D11200",
"n. c #D41D07",
"m. c #C52B09",
"M. c #D42B02",
"N. c #DA2A03",
"B. c #D73705",
"V. c #DA3E1C",
"C. c #CF3D08",
"Z. c #E32702",
"A. c #E52A06",
"S. c #E23804",
"D. c #E33513",
"F. c #D73D23",
"G. c #824605",
"H. c #8A4C07",
"J. c #944203",
"K. c #A84203",
"L. c #B7451E",
"P. c #B14C13",
"I. c #954439",
"U. c #9D513D",
"Y. c #A8463A",
"T. c #B94835",
"R. c #B04D31",
"E. c #B6603F",
"W. c #EA4500",
"Q. c #E34907",
"!. c #EA5208",
"~. c #E4411C",
"^. c #CA4935",
"/. c #D84831",
"(. c #D4523A",
"). c #CB4726",
"_. c #E54929",
"`. c #E85739",
"'. c #D3683B",
"]. c #C4673E",
"[. c #E26E2D",
"{. c #CD570E",
"}. c #894645",
"|. c #964644",
" X c #9B534E",
".X c #875E5A",
"XX c #885F5C",
"oX c #945A57",
"OX c #82534D",
"+X c #B24B46",
"@X c #B5594B",
"#X c #A1504B",
"$X c #87645D",
"%X c #9A6956",
"&X c #BD6F58",
"*X c #856866",
"=X c #986B67",
"-X c #857A79",
";X c #83716F",
":X c #A36D66",
">X c #AF7B72",
",X c #E75D42",
"<X c #CA6958",
"1X c #C27245",
"2X c #4A8905",
"3X c #528604",
"4X c #4F9204",
"5X c #82827F",
"6X c #E9866A",
"7X c #837F80",
"8X c #868383",
"9X c #959399",
"0X c #B98782",
"qX c #B6B4B8",
"wX c #ADADB2",
"eX c #D9A69B",
"rX c #F4A894",
"tX c #DFAAA1",
"yX c #F5BCAB",
"uX c #EADCD8",
"iX c #FBE3D9",
"pX c #E8E7E8",
"aX c #FDFAF8",
"sX c #FDF2EE",
"dX c #CDCCCF",
/* pixels */
"                                                                ",
"                            [ . .  .                            ",
"                          :./ & & / 5X                          ",
"                  -.] / q 5 - V B - q / / ] -.7X                ",
"            :.%.( K * & % % B D C B % % % * K { %.5X            ",
"          -./ K Z F D D S V G Q H V V S D G F Z K / -.          ",
"        -X/ * B S J 2X4X2XG H J H S H 2X4X2XJ S B * / 8X        ",
"      8X{ - B U C Q 2X3X! W G S S G W ! 3X2XQ C U = - ..8X      ",
"      O.; f E E P W ^ ~ R T W S G P R R ~ ^ W P E U = ; O.      ",
"      c e g w.Y P I J.i.a.i.Y F F Y i.a.K.H.I P G.w.g e c       ",
"    ;Xm p r.K.J.Y H.r.M.Z.M.J.I I J.M.A.N.a.H.T w.r.t.i m ;X    ",
"    +.3.u.C.{.K.K.a.M.Z.Z.N.p.T G.r.N.A.D.V.L.P.p.u.m.9.h @.    ",
"    x e.B.W.{.P.L.).^.`.,X`.).P.p.m.D.~.(.T.T.R.L.m.n.v.3.x     ",
"    d t.W.!.[.1X%X=X0XeXyXrX6X(.C.B.V.&X:X$.) ) T.V.n.b.<.d     ",
"    a r.W.!.[.&X@.:.wXpXsXiXyX6XD.D.(.=X>.} 9 c @X/.n.b.2.t     ",
"  *Xh a.W.!.1X:X] >.qXpXaXaXiXrX_./.<XXX} 7 X 4 oX^.n.b.9.s *X  ",
"  XX3.y.W.Q.].$X_ } 9XdXpXpXiXyX`.(.:X+.9 : . + $.T.n.v.7.s $X  ",
"  $X3.y.W.Q.E.=._ _ &.9XqXtXeX<X,X@X#.} 6 X . + $.+Xn.b.7.s XX  ",
"  XX3.y.S.Q.R.+.1 1 _ &.:.8X>X<X<X X[ _ 2 : . X [ Y.n.b.7.p XX  ",
"  XXs u.M.C. X .1 1 _ _ _ } @.=X=XO._ 2 , 2 O X [ I.v.c.5.s *X  ",
"  *Xs 9.M.m.I.| 1 1 _ _ 6 6 ` &. .` 7 2 9 _ , X [ j.v.c.1.a *X  ",
"    t 2.v.v.l.| 1 _ >.| _ 6 7 _ 9 6 , 9 |  .6 X ] j.8.c.<.t     ",
"    d ,.8.0.j.` > _ >.=.' 7 , > > > , ` @.*.8 X [ j.8.8.,.d     ",
"    x i 8.q.k.' > 6 &.oXo._ : O O > 8 o.oX+.2 > [ k.8.7.i c     ",
"    c b <.7.l.X.X , `  X#X' 4 o > , c #X X[ 1 , X.k.6.,.a =.    ",
"    -Xm w <.z.' + o 4 |.+X|.` 6 2 x |.+X}.v : 2 o.h.<.w c -X    ",
"      O.z i d.j.l # l j.z.z.j.` x N x.x.k.x 4 z M d.i z +.      ",
"        +.k t n g.' j.h.q.q.f.h.d.f.q.q.s.g.N n n a k +.        ",
"          O.z b N j.h.f.6.7.q.q.q.6.7.6.4.f.d.n b z O.          ",
"            ;Xc r t s ,.<.1.1.1.4.6.1.<.,.i w r c ;X            ",
"            :.` @ $ w i ,.<.<.<.<.<.<.,.i w $ @ [ :.            ",
"                  @ @ @ @ @ @ @ @ @ @ @ @ @ @ @                 "
};
