/* XPM */
static char *_6c653a6c4aa4907d1e833af1ce33edewMubjYuBysDQdOvC[] = {
/* columns rows colors chars-per-pixel */
"32 32 183 2 ",
"   c None",
".  c #1D1B27",
"X  c #1E1D29",
"o  c #221F2C",
"O  c #2A1F2D",
"+  c #371D2D",
"@  c #3C1B2E",
"#  c #3A1C31",
"$  c #21212D",
"%  c #37232D",
"&  c #272733",
"*  c #3A2632",
"=  c #2B353E",
"-  c #24363B",
";  c #441C2C",
":  c #44272A",
">  c #44283A",
",  c #402032",
"<  c #57282E",
"1  c #63232B",
"2  c #6C252B",
"3  c #6C2A2E",
"4  c #662730",
"5  c #753132",
"6  c #6F352E",
"7  c #6E4033",
"8  c #77493A",
"9  c #2E3D45",
"0  c #2E3640",
"q  c #323D45",
"w  c #3D3B44",
"e  c #363742",
"r  c #423A42",
"t  c #2E4244",
"y  c #304445",
"u  c #344D47",
"i  c #344249",
"p  c #344B4A",
"a  c #3C464D",
"s  c #34544A",
"d  c #3A5B4D",
"f  c #375D4C",
"g  c #3A4A50",
"h  c #2F5D5C",
"j  c #2E5D57",
"k  c #315D5B",
"l  c #365C54",
"z  c #396B4A",
"x  c #3C794C",
"c  c #2F655F",
"v  c #33625D",
"b  c #376657",
"n  c #2D6560",
"m  c #2F6C66",
"M  c #2F6D68",
"N  c #326461",
"B  c #326D66",
"V  c #316D69",
"C  c #386968",
"Z  c #2F7166",
"A  c #337465",
"S  c #357C64",
"D  c #397D65",
"F  c #34716B",
"G  c #3B7E6C",
"H  c #377B69",
"J  c #42414B",
"K  c #445055",
"L  c #494851",
"P  c #734A40",
"I  c #675254",
"U  c #497F7A",
"Y  c #6C676C",
"T  c #78777B",
"R  c #7D7D7F",
"E  c #747477",
"W  c #843C29",
"Q  c #893F2A",
"!  c #803D38",
"~  c #87402B",
"^  c #8B412A",
"/  c #934A2F",
"(  c #975036",
")  c #90584A",
"_  c #AE6342",
"`  c #B66B45",
"'  c #C6774E",
"]  c #C27650",
"[  c #3F8A4F",
"{  c #3A914D",
"}  c #3C8C5D",
"|  c #3F8050",
" . c #3D935B",
".. c #3B8764",
"X. c #43974D",
"o. c #458255",
"O. c #5F8B5C",
"+. c #4B9754",
"@. c #449D53",
"#. c #40975B",
"$. c #569D51",
"%. c #6D925C",
"&. c #75995F",
"*. c #45A94F",
"=. c #49A94E",
"-. c #52AC4F",
";. c #5BAD4E",
":. c #44A353",
">. c #4CA652",
",. c #46A951",
"<. c #4BAB51",
"1. c #47A558",
"2. c #51AD52",
"3. c #5BAF53",
"4. c #50AE5B",
"5. c #59A85E",
"6. c #5EB153",
"7. c #57B158",
"8. c #65AF4D",
"9. c #6AAE4C",
"0. c #66B04E",
"q. c #6CB24D",
"w. c #74B64F",
"e. c #7BB74D",
"r. c #66A950",
"t. c #77AD58",
"y. c #61B155",
"u. c #6DB354",
"i. c #74B652",
"p. c #77B756",
"a. c #418668",
"s. c #568C78",
"d. c #6E9665",
"f. c #649C7F",
"g. c #5AB364",
"h. c #73A97D",
"j. c #71BD79",
"k. c #76B863",
"l. c #879F3E",
"z. c #889F3E",
"x. c #88A03F",
"c. c #879E40",
"v. c #8A9A5F",
"b. c #8CA444",
"n. c #8CA84B",
"m. c #91A944",
"M. c #92AA49",
"N. c #94AB4A",
"B. c #80B94D",
"V. c #89BB4D",
"C. c #93BD4D",
"Z. c #9BBB4D",
"A. c #96B448",
"S. c #91A359",
"D. c #92A752",
"F. c #88B452",
"G. c #9BBB56",
"H. c #A2BE4C",
"J. c #95A275",
"K. c #83B07F",
"L. c #96C14E",
"P. c #9BC24D",
"I. c #9CC450",
"U. c #9BC35C",
"Y. c #A4C34C",
"T. c #AAC64B",
"R. c #ABC84E",
"E. c #A6C353",
"W. c #ABC850",
"Q. c #A0CA73",
"!. c #7E7E80",
"~. c #5F8E89",
"^. c #598A84",
"/. c #659488",
"(. c #8B8B8D",
"). c #828283",
"_. c #B79C96",
"`. c #A48C84",
"'. c #9DA68B",
"]. c #9FA397",
"[. c #A4A69E",
"{. c #ABABAC",
"}. c #CB9E8B",
/* pixels */
"                        {.{.{.{.{.{.                            ",
"                      ].b.z.l.z.l.l.[.                          ",
"                  '.x.m.T.T.T.T.T.T.m.l.].                      ",
"              J.z.A.R.T.T.Y.i.i.T.T.T.T.m.x.'.                  ",
"            Y n.R.R.T.R.T.T.C.C.i.i.i.I.T.T.A.m.b.J.            ",
"        (.v.D.e.q.q.q.q.q.w.T.T.L.<.V.Y.e.L.T.T.T.H.M.m.S.      ",
"    (.S.m.H.R.E.p.,.*.*.,.,.O.q.W.L.T.e.-.;.q.q.V.W.R.T.Y.D.    ",
"  ).D.p.u.k.U.T.Y.L.e.:.S S F I.T.T.T.L.0.*.*.w.Y.C.0.9.8.r.X   ",
"!.+.8.g.g.4.3.8.8.8.$.S H 5.G.T.T.0.0.p.Q.Q.t.e.8.;.,.*.*.,.+.  ",
"X D ,.5.4.,.,.*. .S A M H a.;.8.0.,.4.j.h././.-.*.,.*.,.*.,.S X ",
"  0 s.a.:.,.,. .A m ..:. .Z S ,.*.*.g./.^.^./.S S S S S S A -   ",
"    K n H H S A M ..1.,.:.M m S S S H /.~.~.U M M M M V V m .   ",
"    w { :...M M M ..u.P.P.n.M M M M M M V } :.:.t.Z.Z.G.n.i     ",
"  T X.V.Z.Z.d.V ..,.-.w.T.T.Z.@.:.Z M m V A b [ =.y.e.R.T.N.T   ",
"E n :.6.P.T.Y.&.v o.=.=.;.;.3.d G F M M B B n b d o.2.y.3.;.@.E ",
"$ V :.,.;.6.y.>.} v o.*.:.b H B 1.:.:.F.Z.G.%.B V v d d z *.f o ",
"o p A :.*.x s v A V N s l V Z :.,.,.,.2.I.T.Y.&.M m m m n p o   ",
"  $ 9 p p y k M } >.i.Y.H.A.t p p ,.,.,.<.2.2.>.,. .M V n q $   ",
"    J & q v m  .:.,.*.<.8.T.E.E.9 t t t @.<.x t j M M N 9 L     ",
"      R i v M V j t i z ,.=.*.<.,.>.d B V V A V B m h 9         ",
"        !.& = h V F v 9 q p M M m m V e q h V V h 0 $           ",
"          0 N V F V k q # * 9 9 t > + e N V M V F k q           ",
"          0 9 g 9 9 q q w 1 @ # > 4 w q n V M k 9 g 0           ",
"          (.o 0 i q = . : ( ' 5 @ , O q q 9 9 a e .             ",
"                $ X       * ^ ' 2 ; 2 % X w L                   ",
"                          * 2 Q Q ^ ^ :                         ",
"                          $ @ ; 2 Q 5 +                         ",
"                          % : ^ Q Q 3 Y                         ",
"                        : ^ ^ / Q 5 I                           ",
"                        6 ^ W ` 5 ) ` P                         ",
"                      8 _ 6 @ Q ] < 4 _ 7                       ",
"                    `.}.        _.      _.                      "
};
